{"title":"Fly Me to the Moon 3D(2008) m-HD 480p AC3 Hindi Dubbed-=MTR=-","uid":6443220,"size":420078244,"categoryP":"video","categoryS":"movies","magnet":"?xt=urn:btih:369545e16f3f9269a50751fea2ebde43c0824a6b&amp;dn=Fly+Me+to+the+Moon+3D%282008%29+m-HD+480p+AC3+Hindi+Dubbed-%3DMTR%3D-&amp;tr=udp%3A%2F%2Ftracker.openbittorrent.com%3A80&amp;tr=udp%3A%2F%2Fopen.demonii.com%3A1337&amp;tr=udp%3A%2F%2Ftracker.coppersurfer.tk%3A6969&amp;tr=udp%3A%2F%2Fexodus.desync.com%3A6969","seeders":0,"leechers":1,"uploader":"HDvideos","files":4,"time":1307040460,"description":"Fly Me to the Moon 3D(2008) m-HD 480p AC3 Hindi Dubbed-=MTR=-\n\nCheck out MY latest Uploads:\n &lt;a href=&quot;\nhttp://thepiratebay.se/user/HDvideos/0/7&quot; rel=&quot;nofollow&quot; target=&quot;_NEW&quot;&gt;\nhttp://thepiratebay.se/user/HDvideos/0/7&lt;/a&gt;\n\nStay updated with us....\n\nSeed after downloading....\n\nEnjoY with HDvideos..\n\nTorrent From Mastitorrents\n\nTeam Mastitorrents\n\nSay thanks if u like my posts\n\nGive ur valuable feedbacks\n\nQuality Uploads from HDvideos\n\nFormat                          : Matroska\nFile size                       : 394 MiB\nDuration                        : 1h 20mn\nOverall bit rate                : 682 Kbps\nEncoded date                    : UTC 2011-06-01 16:28:46\nWriting application             : mkvmerge v4.6.0 ('Still Crazy After All These Years') built on Mar 10 2011 02:50:32\nWriting library                 : libebml v1.2.0 + libmatroska v1.1.0\n\nVideo\nID                              : 1\nFormat                          : AVC\nFormat/Info                     : Advanced Video Codec\nFormat profile                  : High****************L3.1\nFormat settings, CABAC          : Yes\nFormat settings, ReFrames       : 5 frames\nCodec ID                        : V_MPEG4/ISO/AVC\nDuration                        : 1h 20mn\nBit rate                        : 616 Kbps\nWidth                           : 848 pixels\nHeight                          : 368 pixels\nDisplay aspect ratio            : 2.35:1\nFrame rate                      : 23.976 fps\nColor space                     : YUV\nChroma subsampling              : 4:2:0\nBit depth                       : 8 bits\nScan type                       : Progressive\nBits/(Pixel*Frame)              : 0.082\nStream size                     : 350 MiB (89%)\nWriting library                 : x264 core 114 r1924 08d04a4\nEncoding settings               : cabac=1 / ref=5 / deblock=1:-1:-1 / analyse=0x3:0x133 / me=umh / subme=8 / psy=1 / psy_rd=1.00:0.00 / mixed_ref=1 / me_range=24 / chroma_me=1 / trellis=2 / 8x8dct=1 / cqm=0 / deadzone=21,11 / fast_pskip=1 / chroma_qp_offset=-2 / threads=3 / sliced_threads=0 / nr=0 / decimate=1 / interlaced=0 / constrained_intra=0 / bframes=3 / b_pyramid=2 / b_adapt=2 / b_bias=0 / direct=3 / weightb=1 / open_gop=0 / weightp=2 / keyint=250 / keyint_min=23 / scenecut=40 / intra_refresh=0 / rc_lookahead=50 / rc=2pass / mbtree=1 / bitrate=616 / ratetol=1.0 / qcomp=0.60 / qpmin=10 / qpmax=69 / qpstep=4 / cplxblur=20.0 / qblur=0.5 / ip_ratio=1.40 / aq=1:1.00\n\nAudio\nID                              : 2\nFormat                          : AC-3\nFormat/Info                     : Audio Coding 3\nMode extension                  : CM (complete main)\nCodec ID                        : A_AC3\nDuration                        : 1h 20mn\nBit rate mode                   : Constant\nBit rate                        : 64.0 Kbps\nChannel(s)                      : 2 channels\nChannel positions               : Front: L R\nSampling rate                   : 44.1 KHz\nBit depth                       : 16 bits\nCompression mode                : Lossy\nDelay relative to video         : 1s 0ms\nStream size                     : 37.0 MiB (9%)\nLanguage                        : Hindi\n\n","torrent":{"xt":"urn:btih:369545e16f3f9269a50751fea2ebde43c0824a6b","amp;dn":"Fly+Me+to+the+Moon+3D%282008%29+m-HD+480p+AC3+Hindi+Dubbed-%3DMTR%3D-","amp;tr":["udp%3A%2F%2Ftracker.openbittorrent.com%3A80","udp%3A%2F%2Fopen.demonii.com%3A1337","udp%3A%2F%2Ftracker.coppersurfer.tk%3A6969","udp%3A%2F%2Fexodus.desync.com%3A6969"],"infoHash":"369545e16f3f9269a50751fea2ebde43c0824a6b","infoHashBuffer":{"type":"Buffer","data":[54,149,69,225,111,63,146,105,165,7,81,254,162,235,222,67,192,130,74,107]},"announce":[],"urlList":[]}}